<?xml version="1.0" encoding="utf-8"?>

<!DOCTYPE svg PUBLIC "-//W3C//DTD SVG 1.1//EN" "http://www.w3.org/Graphics/SVG/1.1/DTD/svg11.dtd">
<svg version="1.1" id="Layer_1" xmlns="http://www.w3.org/2000/svg" xmlns:xlink="http://www.w3.org/1999/xlink" x="0px" y="0px"
	 viewBox="0 0 935.885 1719.385" enable-background="new 0 0 935.885 1719.385" xml:space="preserve">
<path d="M458.198,59.267c237.549,0,303.131,283.321,134.733,399.46c34.297,13.416,133.91,62.812,151.708,95.306
	c21.907,39.994,48.207,130.869,124.646,356.236c18.532,54.668-11.634,102.607-54.524,99.846
	c-62.136-3.703-72.805-83.183-118.883-218.279c-0.076,248.541,0,497.086-0.04,745.627
	c-0.453,124.104-162.579,162.557-231.616,75.699c-65.449,80.109-210.534,53.229-229.251-56.379
	c-2.569-14.348-1.693,37.099-1.759-760.389C178.06,967.31,180.779,960.852,176.151,970.15
	c-40.556,83.251-142.213,38.701-108.311-60.331c123.237-382.8,103.337-364.646,180.604-407.128
	c29.792-16.38,58.712-34.716,90.582-46.916C172.741,335.278,250.135,69.165,458.198,59.267 M455.625,140.515
	c-152.868,13.802-171.31,228.108-26.734,270.767c120.788,35.964,224.271-97.73,156.619-206.16
	C558.602,161.566,508.07,135.68,455.625,140.515 M295.443,594.165c-2.28,996.592-14.18,980.73,40.622,1007.08
	c24.549,11.956,54.735,5.799,74.208-18.385c25.302-31.16,18.112-10.389,18.239-564.735c23.358,0.015,46.711-0.02,70.069,0.015
	c-0.015,36.632,0.121,487.586,0.131,519.838c-3.342,107.18,135.922,109.392,133.736-1.026c0-11.76,0.411-859.107-0.97-944.627
	C511.609,509.506,401.076,517.922,295.443,594.165z"/>
</svg>
